<svg width="24" height="24" viewBox="0 0 44 44" fill="none" xmlns="http://www.w3.org/2000/svg">
<path d="M32.5 18.8125C32.5 25.375 22.7697 30.6869 22.3553 30.9062C22.2461 30.965 22.124 30.9958 22 30.9958C21.876 30.9958 21.7539 30.965 21.6447 30.9062C21.2303 30.6869 11.5 25.375 11.5 18.8125C11.5017 17.2715 12.1147 15.794 13.2044 14.7044C14.294 13.6147 15.7715 13.0017 17.3125 13C19.2484 13 20.9434 13.8325 22 15.2397C23.0566 13.8325 24.7516 13 26.6875 13C28.2285 13.0017 29.706 13.6147 30.7956 14.7044C31.8853 15.794 32.4983 17.2715 32.5 18.8125Z" fill="#3F418D"/>
</svg>
