<svg width="40" height="40" viewBox="0 0 40 40" fill="none" xmlns="http://www.w3.org/2000/svg">
<path d="M13.6914 17.7778V11.1111C13.6914 9.34301 14.3938 7.64732 15.644 6.39708C16.8943 5.14684 18.59 4.44446 20.3581 4.44446C22.1262 4.44446 23.8219 5.14684 25.0721 6.39708C26.3224 7.64732 27.0247 9.34301 27.0247 11.1111V17.7778" stroke="white" stroke-width="1.55556" stroke-linecap="round"/>
<path d="M6.51477 18.8912C6.75644 15.9895 6.8781 14.5395 7.83477 13.6578C8.79144 12.7778 10.2481 12.7778 13.1598 12.7778H27.5581C30.4681 12.7778 31.9248 12.7778 32.8814 13.6578C33.8381 14.5378 33.9598 15.9895 34.2014 18.8912L35.0581 29.1678C35.1981 30.8562 35.2681 31.7012 34.7748 32.2395C34.2781 32.7778 33.4314 32.7778 31.7348 32.7778H8.98144C7.28644 32.7778 6.4381 32.7778 5.9431 32.2395C5.4481 31.7012 5.5181 30.8562 5.65977 29.1678L6.51477 18.8912Z" stroke="white" stroke-width="1.55556"/>
</svg>
